<svg xmlns="http://www.w3.org/2000/svg" data-name="Layer 1" viewBox="0 0 1000 1000"><path d="M168.68,915.68A41.76,41.76,0,0,1,139,903.37h0L96.63,861a42,42,0,0,1,0-59.44L486.82,411.4a42,42,0,0,1,59.44,0l42.34,42.34a42.09,42.09,0,0,1,0,59.44L198.4,903.37A41.75,41.75,0,0,1,168.68,915.68Zm-7.09-34.93a10.06,10.06,0,0,0,14.19,0L566,490.55a10,10,0,0,0,0-14.19L523.64,434a10,10,0,0,0-14.19,0L119.25,824.22a10.06,10.06,0,0,0,0,14.19l42.34,42.34Z"/><path d="M556.12 459.88a16 16 0 01-11.32-27.31L759.64 217.74a16 16 0 1122.62 22.62L567.43 455.2A16 16 0 01556.12 459.88zM529.22 565.93a16 16 0 01-11.32-4.68L438.75 482.1a16 16 0 0122.63-22.63l79.15 79.15a16 16 0 01-11.31 27.31zM234.82 861a16 16 0 01-11.31-4.68l-79.15-79.15A16 16 0 01167 754.53l79.15 79.15A16 16 0 01234.82 861zM311.85 704.48a16 16 0 01-11.31-27.31L361.73 616a16 16 0 1122.62 22.62l-61.19 61.2A16 16 0 01311.85 704.48zM816.4 199.6a16 16 0 01-11.31-27.32l43-43a16 16 0 0122.63 22.63l-43 43A15.94 15.94 0 01816.4 199.6zM900.32 255.36H839.5a16 16 0 010-32h60.82a16 16 0 010 32zM859.41 354.13a15.92 15.92 0 01-11.31-4.69l-43-43a16 16 0 1122.63-22.62l43 43a16 16 0 01-11.32 27.31zM704.88 199.6a15.92 15.92 0 01-11.31-4.69l-43-43a16 16 0 1122.62-22.63l43 43a16 16 0 01-11.31 27.32zM760.64 176.5a16 16 0 01-16-16V99.68a16 16 0 1132 0V160.5A16 16 0 01760.64 176.5z"/></svg>